<?xml version="1.0" standalone="no"?>
<!DOCTYPE svg PUBLIC "-//W3C//DTD SVG 20010904//EN"
 "http://www.w3.org/TR/2001/REC-SVG-20010904/DTD/svg10.dtd">
<svg version="1.0" xmlns="http://www.w3.org/2000/svg"
 width="530.000000pt" height="145.000000pt" viewBox="0 0 530.000000 145.000000"
 preserveAspectRatio="xMidYMid meet">

<g transform="translate(0.000000,145.000000) scale(0.100000,-0.100000)"
fill="#000000" stroke="none">
<path d="M630 1364 c-214 -59 -385 -217 -455 -422 -36 -105 -44 -249 -21 -356
55 -246 260 -450 504 -501 348 -72 691 145 778 495 23 90 15 261 -15 350 -66
192 -216 346 -409 418 -56 21 -88 26 -197 28 -95 3 -145 0 -185 -12z m-7 -376
c8 -13 53 -72 100 -131 l86 -108 103 130 c76 96 109 130 126 130 l22 1 0 -265
0 -265 -35 0 -35 0 0 193 c-1 167 -2 190 -15 173 -78 -103 -153 -185 -166
-183 -9 1 -50 41 -92 90 l-77 87 -2 -177 -3 -178 -32 -3 -33 -3 0 265 c0 254
1 266 19 266 10 0 25 -10 34 -22z"/>
<path d="M4560 790 l0 -410 25 0 24 0 1 410 0 410 -25 0 -25 0 0 -410z"/>
<path d="M1740 767 c0 -380 0 -387 20 -387 20 0 20 7 20 310 0 172 4 310 9
310 5 0 21 -17 37 -37 50 -67 247 -293 254 -293 9 0 123 136 215 257 39 51 74
91 78 90 4 -1 8 -145 7 -320 l-1 -317 26 0 25 0 0 385 c0 212 -3 385 -7 385
-5 0 -80 -93 -168 -205 -104 -133 -166 -203 -176 -202 -10 1 -83 88 -164 192
-81 105 -154 197 -161 205 -12 12 -14 -43 -14 -373z"/>
<path d="M3756 1104 c-9 -8 -16 -22 -16 -29 0 -15 26 -45 39 -45 11 0 41 34
41 47 0 10 -32 43 -43 43 -3 0 -13 -7 -21 -16z"/>
<path d="M3359 951 c-69 -23 -109 -74 -109 -142 0 -49 57 -98 168 -144 118
-49 142 -70 142 -128 0 -51 -24 -88 -70 -107 -47 -19 -141 -7 -196 25 -40 24
-48 25 -61 13 -13 -13 -8 -19 34 -46 65 -42 138 -57 204 -43 96 21 139 71 139
162 0 46 -4 55 -37 88 -25 25 -73 52 -141 80 -56 24 -109 53 -117 64 -22 31
-18 72 9 104 23 26 29 28 98 26 40 -1 84 -3 97 -5 35 -4 37 18 2 36 -36 19
-127 28 -162 17z"/>
<path d="M4158 947 c-82 -23 -143 -83 -174 -169 -18 -52 -20 -181 -3 -237 16
-53 70 -116 123 -143 57 -30 169 -30 248 1 63 24 71 32 62 54 -5 14 -12 13
-52 -6 -36 -16 -67 -21 -133 -22 -76 0 -90 3 -126 27 -60 39 -88 103 -88 198
0 94 17 142 67 196 60 66 156 83 233 44 34 -17 41 -18 53 -6 12 12 8 18 -30
40 -55 32 -118 40 -180 23z"/>
<path d="M2642 711 c3 -225 4 -241 24 -268 36 -48 80 -67 153 -67 75 0 99 10
158 66 l41 40 20 -45 c23 -52 35 -62 51 -43 8 10 7 23 -6 52 -15 33 -18 76
-20 269 -2 223 -3 230 -23 233 -20 3 -20 -1 -20 -201 l0 -204 -40 -45 c-49
-56 -93 -78 -157 -78 -61 0 -92 16 -117 60 -22 36 -22 36 -26 443 0 20 -5 27
-21 27 -20 0 -20 -4 -17 -239z"/>
<path d="M3760 665 l0 -286 23 3 22 3 0 280 0 280 -22 3 -23 3 0 -286z"/>
<path d="M4769 883 c16 -37 72 -170 125 -295 l95 -227 -30 -90 c-34 -101 -57
-127 -121 -137 -21 -4 -38 -12 -38 -18 1 -57 109 -27 162 45 13 19 248 758
248 783 0 3 -11 6 -23 6 -22 0 -28 -15 -91 -231 -80 -275 -84 -285 -97 -272
-5 5 -53 119 -107 254 -92 228 -100 244 -125 247 l-27 3 29 -68z"/>
</g>
</svg>
